<?xml version="1.0" encoding="utf-8"?>
<!-- Generator: Adobe Illustrator 19.0.0, SVG Export Plug-In . SVG Version: 6.00 Build 0)  -->
<svg version="1.1" id="Layer_1" xmlns="http://www.w3.org/2000/svg" xmlns:xlink="http://www.w3.org/1999/xlink" x="0px" y="0px"
	 viewBox="0 0 500 500" style="enable-background:new 0 0 500 500;" xml:space="preserve">
<style type="text/css">
	.st0{fill:#77B900;}
</style>
<g id="XMLID_1_">
	<path id="path17" d="M427.5,374.1c0,3.9-2.8,6.5-6.2,6.5v0c-3.5,0-6.2-2.6-6.2-6.4c0-3.9,2.8-6.4,6.2-6.4
		C424.7,367.7,427.5,370.3,427.5,374.1z M430,374.1c0-5.3-4.1-8.4-8.7-8.4c-4.6,0-8.7,3.1-8.7,8.4c0,5.3,4.1,8.4,8.7,8.4
		C425.9,382.5,430,379.4,430,374.1 M419.8,374.9h0.9l2.2,3.8h2.4l-2.4-4c1.2-0.1,2.3-0.7,2.3-2.3c0-2.1-1.4-2.7-3.8-2.7h-3.5v9h2
		L419.8,374.9 M419.8,373.3v-2.2h1.4c0.8,0,1.8,0.1,1.8,1c0,1-0.5,1.2-1.4,1.2H419.8"/>
	<path id="path19" d="M371.4,328l10.9,29.7h-22L371.4,328z M359.7,316.4l-25,63.4h17.7l4-11.2H386l3.7,11.2h19.2l-25.2-63.4
		L359.7,316.4z M309.5,379.8h17.9v-63.4l-17.9,0L309.5,379.8z M185.1,316.4l-15,50.3l-14.3-50.3l-19.3,0l20.5,63.4h25.8l20.6-63.4
		H185.1z M257.5,330.2h7.7c11.2,0,18.4,5,18.4,18c0,13-7.2,18-18.4,18h-7.7V330.2z M239.8,316.4v63.4h29.1c15.5,0,20.5-2.6,26-8.3
		c3.9-4.1,6.4-12.9,6.4-22.7c0-8.9-2.1-16.9-5.8-21.8c-6.6-8.9-16.2-10.6-30.5-10.6H239.8L239.8,316.4z M70,316.3v63.5h18.1v-48.2
		l14,0c4.6,0,7.9,1.2,10.2,3.5c2.8,3,4,7.9,4,16.8v27.9h17.5v-35.1c0-25-16-28.4-31.6-28.4H70z M210.9,316.4l0,63.4h17.9v-63.4
		H210.9z"/>
	<path id="path21" class="st0" d="M118.2,190.1c0,0,23.1-34,69.1-37.5v-12.3c-51,4.1-95.1,47.3-95.1,47.3s25,72.3,95.1,78.9v-13.1
		C135.8,246.8,118.2,190.1,118.2,190.1z M187.2,227.2v12c-38.9-6.9-49.7-47.4-49.7-47.4s18.7-20.7,49.7-24V181c0,0,0,0-0.1,0
		c-16.3-2-29,13.3-29,13.3S165.3,219.8,187.2,227.2 M187.2,117.5v22.8c1.5-0.1,3-0.2,4.5-0.3c58-2,95.7,47.5,95.7,47.5
		s-43.4,52.7-88.6,52.7c-4.1,0-8-0.4-11.7-1v14.1c3.1,0.4,6.3,0.6,9.7,0.6c42,0,72.5-21.5,101.9-46.9c4.9,3.9,24.9,13.4,29,17.6
		c-28,23.4-93.2,42.3-130.2,42.3c-3.6,0-7-0.2-10.4-0.5v19.8h159.8V117.5H187.2z M187.2,167.8v-15.2c1.5-0.1,3-0.2,4.5-0.2
		c41.7-1.3,69,35.8,69,35.8s-29.5,41-61.2,41c-4.6,0-8.6-0.7-12.3-2V181c16.2,2,19.5,9.1,29.2,25.4l21.7-18.3
		c0,0-15.8-20.8-42.5-20.8C192.7,167.3,190,167.5,187.2,167.8"/>
</g>
</svg>
